<svg width="293" height="279" viewBox="0 0 293 279" fill="none" xmlns="http://www.w3.org/2000/svg">
<path d="M169.07 72.8877H132.903C130.248 72.8877 128.142 74.893 128.142 77.4214V226.338C128.142 228.866 130.248 230.871 132.903 230.871H169.07C171.725 230.871 173.831 228.866 173.831 226.338V77.5086C173.831 74.9802 171.725 72.8877 169.07 72.8877Z" fill="url(#paint0_linear_472_1888)"/>
<path d="M169.07 72.8877H132.903C130.248 72.8877 128.142 74.893 128.142 77.4214V226.338C128.142 228.866 130.248 230.871 132.903 230.871H169.07C171.725 230.871 173.831 228.866 173.831 226.338V77.5086C173.831 74.9802 171.725 72.8877 169.07 72.8877Z" fill="url(#paint1_linear_472_1888)"/>
<path d="M169.07 72.8877H132.903C130.248 72.8877 128.142 74.893 128.142 77.4214V226.338C128.142 228.866 130.248 230.871 132.903 230.871H169.07C171.725 230.871 173.831 228.866 173.831 226.338V77.5086C173.831 74.9802 171.725 72.8877 169.07 72.8877Z" fill="url(#paint2_radial_472_1888)"/>
<path d="M169.07 72.8877H132.903C130.248 72.8877 128.142 74.893 128.142 77.4214V226.338C128.142 228.866 130.248 230.871 132.903 230.871H169.07C171.725 230.871 173.831 228.866 173.831 226.338V77.5086C173.831 74.9802 171.725 72.8877 169.07 72.8877Z" fill="url(#paint3_radial_472_1888)"/>
<path d="M169.07 72.8877H132.903C130.248 72.8877 128.142 74.893 128.142 77.4214V226.338C128.142 228.866 130.248 230.871 132.903 230.871H169.07C171.725 230.871 173.831 228.866 173.831 226.338V77.5086C173.831 74.9802 171.725 72.8877 169.07 72.8877Z" fill="url(#paint4_radial_472_1888)"/>
<path d="M169.07 72.8877H132.903C130.248 72.8877 128.142 74.893 128.142 77.4214V226.338C128.142 228.866 130.248 230.871 132.903 230.871H169.07C171.725 230.871 173.831 228.866 173.831 226.338V77.5086C173.831 74.9802 171.725 72.8877 169.07 72.8877Z" fill="url(#paint5_radial_472_1888)"/>
<path d="M169.07 72.8877H132.903C130.248 72.8877 128.142 74.893 128.142 77.4214V226.338C128.142 228.866 130.248 230.871 132.903 230.871H169.07C171.725 230.871 173.831 228.866 173.831 226.338V77.5086C173.831 74.9802 171.725 72.8877 169.07 72.8877Z" fill="url(#paint6_radial_472_1888)"/>
<path d="M142.333 74.1094C144.861 74.1094 146.933 72.1512 146.702 69.7537C144.364 45.4357 122.662 26.1562 96.5514 26.1562C72.1042 26.1562 51.5026 43.1578 47.1076 65.3034C46.1004 69.8372 50.1292 74.1094 55.0736 74.1094H142.333Z" fill="url(#paint7_radial_472_1888)"/>
<path d="M142.333 74.1094C144.861 74.1094 146.933 72.1512 146.702 69.7537C144.364 45.4357 122.662 26.1562 96.5514 26.1562C72.1042 26.1562 51.5026 43.1578 47.1076 65.3034C46.1004 69.8372 50.1292 74.1094 55.0736 74.1094H142.333Z" fill="url(#paint8_radial_472_1888)"/>
<path d="M142.333 74.1094C144.861 74.1094 146.933 72.1512 146.702 69.7537C144.364 45.4357 122.662 26.1562 96.5514 26.1562C72.1042 26.1562 51.5026 43.1578 47.1076 65.3034C46.1004 69.8372 50.1292 74.1094 55.0736 74.1094H142.333Z" fill="url(#paint9_linear_472_1888)"/>
<path d="M142.333 74.1094C144.861 74.1094 146.933 72.1512 146.702 69.7537C144.364 45.4357 122.662 26.1562 96.5514 26.1562C72.1042 26.1562 51.5026 43.1578 47.1076 65.3034C46.1004 69.8372 50.1292 74.1094 55.0736 74.1094H142.333Z" fill="url(#paint10_linear_472_1888)"/>
<path d="M142.333 74.1094C144.861 74.1094 146.933 72.1512 146.702 69.7537C144.364 45.4357 122.662 26.1562 96.5514 26.1562C72.1042 26.1562 51.5026 43.1578 47.1076 65.3034C46.1004 69.8372 50.1292 74.1094 55.0736 74.1094H142.333Z" fill="url(#paint11_radial_472_1888)"/>
<path d="M142.333 74.1094C144.861 74.1094 146.933 72.1512 146.702 69.7537C144.364 45.4357 122.662 26.1562 96.5514 26.1562C72.1042 26.1562 51.5026 43.1578 47.1076 65.3034C46.1004 69.8372 50.1292 74.1094 55.0736 74.1094H142.333Z" fill="url(#paint12_radial_472_1888)"/>
<path d="M142.333 74.1094C144.861 74.1094 146.933 72.1512 146.702 69.7537C144.364 45.4357 122.662 26.1562 96.5514 26.1562C72.1042 26.1562 51.5026 43.1578 47.1076 65.3034C46.1004 69.8372 50.1292 74.1094 55.0736 74.1094H142.333Z" fill="url(#paint13_radial_472_1888)"/>
<path d="M263.326 244.211H39.835C63.7039 209.601 104.831 186.755 151.58 186.755C198.329 186.755 239.457 209.601 263.326 244.211Z" fill="url(#paint14_radial_472_1888)"/>
<path d="M263.326 244.211H39.835C63.7039 209.601 104.831 186.755 151.58 186.755C198.329 186.755 239.457 209.601 263.326 244.211Z" fill="url(#paint15_radial_472_1888)"/>
<path d="M150.024 74.1094C147.495 74.1094 145.424 72.1512 145.654 69.7537C147.992 45.4357 169.694 26.1562 195.805 26.1562C220.252 26.1562 240.854 43.1578 245.249 65.3034C246.164 69.9244 242.227 74.1094 237.283 74.1094H150.024Z" fill="url(#paint16_radial_472_1888)"/>
<path d="M150.024 74.1094C147.495 74.1094 145.424 72.1512 145.654 69.7537C147.992 45.4357 169.694 26.1562 195.805 26.1562C220.252 26.1562 240.854 43.1578 245.249 65.3034C246.164 69.9244 242.227 74.1094 237.283 74.1094H150.024Z" fill="url(#paint17_radial_472_1888)"/>
<path d="M150.024 74.1094C147.495 74.1094 145.424 72.1512 145.654 69.7537C147.992 45.4357 169.694 26.1562 195.805 26.1562C220.252 26.1562 240.854 43.1578 245.249 65.3034C246.164 69.9244 242.227 74.1094 237.283 74.1094H150.024Z" fill="url(#paint18_linear_472_1888)"/>
<path d="M150.024 74.1094C147.495 74.1094 145.424 72.1512 145.654 69.7537C147.992 45.4357 169.694 26.1562 195.805 26.1562C220.252 26.1562 240.854 43.1578 245.249 65.3034C246.164 69.9244 242.227 74.1094 237.283 74.1094H150.024Z" fill="url(#paint19_radial_472_1888)"/>
<path d="M148.284 79.6017C145.079 76.5501 145.354 71.2317 149.108 68.7904C167.329 56.9329 192.6 58.7638 208.715 74.0217C224.83 89.3667 226.662 113.43 214.209 130.781C211.645 134.355 206.06 134.704 202.855 131.565L148.284 79.6017Z" fill="url(#paint20_radial_472_1888)"/>
<path d="M148.284 79.6017C145.079 76.5501 145.354 71.2317 149.108 68.7904C167.329 56.9329 192.6 58.7638 208.715 74.0217C224.83 89.3667 226.662 113.43 214.209 130.781C211.645 134.355 206.06 134.704 202.855 131.565L148.284 79.6017Z" fill="url(#paint21_radial_472_1888)"/>
<path d="M148.284 79.6017C145.079 76.5501 145.354 71.2317 149.108 68.7904C167.329 56.9329 192.6 58.7638 208.715 74.0217C224.83 89.3667 226.662 113.43 214.209 130.781C211.645 134.355 206.06 134.704 202.855 131.565L148.284 79.6017Z" fill="url(#paint22_radial_472_1888)"/>
<path d="M148.284 79.6017C145.079 76.5501 145.354 71.2317 149.108 68.7904C167.329 56.9329 192.6 58.7638 208.715 74.0217C224.83 89.3667 226.662 113.43 214.209 130.781C211.645 134.355 206.06 134.704 202.855 131.565L148.284 79.6017Z" fill="url(#paint23_radial_472_1888)"/>
<path d="M148.284 79.6017C145.079 76.5501 145.354 71.2317 149.108 68.7904C167.329 56.9329 192.6 58.7638 208.715 74.0217C224.83 89.3667 226.662 113.43 214.209 130.781C211.645 134.355 206.06 134.704 202.855 131.565L148.284 79.6017Z" fill="url(#paint24_linear_472_1888)"/>
<path d="M148.284 79.6017C145.079 76.5501 145.354 71.2317 149.108 68.7904C167.329 56.9329 192.6 58.7638 208.715 74.0217C224.83 89.3667 226.662 113.43 214.209 130.781C211.645 134.355 206.06 134.704 202.855 131.565L148.284 79.6017Z" fill="url(#paint25_radial_472_1888)" fill-opacity="0.5"/>
<path d="M143.89 79.4266C147.186 76.2879 146.912 70.795 142.974 68.2666C124.204 56.0604 98.2003 57.8913 81.6275 73.6722C65.0547 89.4532 63.1319 114.302 75.9506 132.088C78.6059 135.837 84.2828 136.098 87.6706 132.96L143.89 79.4266Z" fill="url(#paint26_radial_472_1888)"/>
<path d="M143.89 79.4266C147.186 76.2879 146.912 70.795 142.974 68.2666C124.204 56.0604 98.2003 57.8913 81.6275 73.6722C65.0547 89.4532 63.1319 114.302 75.9506 132.088C78.6059 135.837 84.2828 136.098 87.6706 132.96L143.89 79.4266Z" fill="url(#paint27_radial_472_1888)"/>
<path d="M143.89 79.4266C147.186 76.2879 146.912 70.795 142.974 68.2666C124.204 56.0604 98.2003 57.8913 81.6275 73.6722C65.0547 89.4532 63.1319 114.302 75.9506 132.088C78.6059 135.837 84.2828 136.098 87.6706 132.96L143.89 79.4266Z" fill="url(#paint28_radial_472_1888)"/>
<path d="M143.89 79.4266C147.186 76.2879 146.912 70.795 142.974 68.2666C124.204 56.0604 98.2003 57.8913 81.6275 73.6722C65.0547 89.4532 63.1319 114.302 75.9506 132.088C78.6059 135.837 84.2828 136.098 87.6706 132.96L143.89 79.4266Z" fill="url(#paint29_linear_472_1888)"/>
<path d="M143.89 79.4266C147.186 76.2879 146.912 70.795 142.974 68.2666C124.204 56.0604 98.2003 57.8913 81.6275 73.6722C65.0547 89.4532 63.1319 114.302 75.9506 132.088C78.6059 135.837 84.2828 136.098 87.6706 132.96L143.89 79.4266Z" fill="url(#paint30_radial_472_1888)" fill-opacity="0.5"/>
<path d="M168.979 130.869C179.092 130.869 187.291 123.062 187.291 113.431C187.291 103.801 179.092 95.9937 168.979 95.9937C158.865 95.9937 150.666 103.801 150.666 113.431C150.666 123.062 158.865 130.869 168.979 130.869Z" fill="url(#paint31_radial_472_1888)"/>
<path d="M168.979 130.869C179.092 130.869 187.291 123.062 187.291 113.431C187.291 103.801 179.092 95.9937 168.979 95.9937C158.865 95.9937 150.666 103.801 150.666 113.431C150.666 123.062 158.865 130.869 168.979 130.869Z" fill="url(#paint32_radial_472_1888)"/>
<path d="M168.979 130.869C179.092 130.869 187.291 123.062 187.291 113.431C187.291 103.801 179.092 95.9937 168.979 95.9937C158.865 95.9937 150.666 103.801 150.666 113.431C150.666 123.062 158.865 130.869 168.979 130.869Z" fill="url(#paint33_radial_472_1888)"/>
<path d="M168.979 130.869C179.092 130.869 187.291 123.062 187.291 113.431C187.291 103.801 179.092 95.9937 168.979 95.9937C158.865 95.9937 150.666 103.801 150.666 113.431C150.666 123.062 158.865 130.869 168.979 130.869Z" fill="url(#paint34_radial_472_1888)"/>
<path d="M168.979 130.869C179.092 130.869 187.291 123.062 187.291 113.431C187.291 103.801 179.092 95.9937 168.979 95.9937C158.865 95.9937 150.666 103.801 150.666 113.431C150.666 123.062 158.865 130.869 168.979 130.869Z" fill="url(#paint35_radial_472_1888)"/>
<path d="M168.979 130.869C179.092 130.869 187.291 123.062 187.291 113.431C187.291 103.801 179.092 95.9937 168.979 95.9937C158.865 95.9937 150.666 103.801 150.666 113.431C150.666 123.062 158.865 130.869 168.979 130.869Z" fill="url(#paint36_radial_472_1888)"/>
<path d="M168.979 130.869C179.092 130.869 187.291 123.062 187.291 113.431C187.291 103.801 179.092 95.9937 168.979 95.9937C158.865 95.9937 150.666 103.801 150.666 113.431C150.666 123.062 158.865 130.869 168.979 130.869Z" fill="url(#paint37_radial_472_1888)"/>
<path d="M279.165 243.395C279.165 238.354 276.122 235.804 270.152 233.791C263.285 231.475 256.75 226.775 245.945 226.775C230.197 226.775 230.197 235.494 214.448 235.494C198.699 235.494 198.699 226.775 182.859 226.775C167.11 226.775 167.11 235.494 151.27 235.494C135.521 235.494 135.521 226.775 119.681 226.775C103.932 226.775 103.932 235.494 88.1832 235.494C72.4345 235.494 72.4345 226.775 56.5942 226.775C43.9586 226.775 38.8311 232.268 30.1326 234.447C25.8292 235.581 22.8076 239.33 22.8076 243.515C22.8076 248.746 27.2026 252.931 32.6964 252.931H268.936C276.662 252.931 279.165 247.005 279.165 243.395Z" fill="url(#paint38_linear_472_1888)"/>
<path d="M279.165 243.395C279.165 238.354 276.122 235.804 270.152 233.791C263.285 231.475 256.75 226.775 245.945 226.775C230.197 226.775 230.197 235.494 214.448 235.494C198.699 235.494 198.699 226.775 182.859 226.775C167.11 226.775 167.11 235.494 151.27 235.494C135.521 235.494 135.521 226.775 119.681 226.775C103.932 226.775 103.932 235.494 88.1832 235.494C72.4345 235.494 72.4345 226.775 56.5942 226.775C43.9586 226.775 38.8311 232.268 30.1326 234.447C25.8292 235.581 22.8076 239.33 22.8076 243.515C22.8076 248.746 27.2026 252.931 32.6964 252.931H268.936C276.662 252.931 279.165 247.005 279.165 243.395Z" fill="url(#paint39_linear_472_1888)"/>
<path d="M279.165 243.395C279.165 238.354 276.122 235.804 270.152 233.791C263.285 231.475 256.75 226.775 245.945 226.775C230.197 226.775 230.197 235.494 214.448 235.494C198.699 235.494 198.699 226.775 182.859 226.775C167.11 226.775 167.11 235.494 151.27 235.494C135.521 235.494 135.521 226.775 119.681 226.775C103.932 226.775 103.932 235.494 88.1832 235.494C72.4345 235.494 72.4345 226.775 56.5942 226.775C43.9586 226.775 38.8311 232.268 30.1326 234.447C25.8292 235.581 22.8076 239.33 22.8076 243.515C22.8076 248.746 27.2026 252.931 32.6964 252.931H268.936C276.662 252.931 279.165 247.005 279.165 243.395Z" fill="url(#paint40_radial_472_1888)"/>
<path d="M279.165 243.395C279.165 238.354 276.122 235.804 270.152 233.791C263.285 231.475 256.75 226.775 245.945 226.775C230.197 226.775 230.197 235.494 214.448 235.494C198.699 235.494 198.699 226.775 182.859 226.775C167.11 226.775 167.11 235.494 151.27 235.494C135.521 235.494 135.521 226.775 119.681 226.775C103.932 226.775 103.932 235.494 88.1832 235.494C72.4345 235.494 72.4345 226.775 56.5942 226.775C43.9586 226.775 38.8311 232.268 30.1326 234.447C25.8292 235.581 22.8076 239.33 22.8076 243.515C22.8076 248.746 27.2026 252.931 32.6964 252.931H268.936C276.662 252.931 279.165 247.005 279.165 243.395Z" fill="url(#paint41_radial_472_1888)"/>
<path d="M279.165 243.395C279.165 238.354 276.122 235.804 270.152 233.791C263.285 231.475 256.75 226.775 245.945 226.775C230.197 226.775 230.197 235.494 214.448 235.494C198.699 235.494 198.699 226.775 182.859 226.775C167.11 226.775 167.11 235.494 151.27 235.494C135.521 235.494 135.521 226.775 119.681 226.775C103.932 226.775 103.932 235.494 88.1832 235.494C72.4345 235.494 72.4345 226.775 56.5942 226.775C43.9586 226.775 38.8311 232.268 30.1326 234.447C25.8292 235.581 22.8076 239.33 22.8076 243.515C22.8076 248.746 27.2026 252.931 32.6964 252.931H268.936C276.662 252.931 279.165 247.005 279.165 243.395Z" fill="url(#paint42_radial_472_1888)"/>
<path d="M279.165 243.395C279.165 238.354 276.122 235.804 270.152 233.791C263.285 231.475 256.75 226.775 245.945 226.775C230.197 226.775 230.197 235.494 214.448 235.494C198.699 235.494 198.699 226.775 182.859 226.775C167.11 226.775 167.11 235.494 151.27 235.494C135.521 235.494 135.521 226.775 119.681 226.775C103.932 226.775 103.932 235.494 88.1832 235.494C72.4345 235.494 72.4345 226.775 56.5942 226.775C43.9586 226.775 38.8311 232.268 30.1326 234.447C25.8292 235.581 22.8076 239.33 22.8076 243.515C22.8076 248.746 27.2026 252.931 32.6964 252.931H268.936C276.662 252.931 279.165 247.005 279.165 243.395Z" fill="url(#paint43_radial_472_1888)"/>
<path d="M132.536 113.257C142.6 113.257 150.757 105.489 150.757 95.9065C150.757 86.3241 142.6 78.5562 132.536 78.5562C122.473 78.5562 114.315 86.3241 114.315 95.9065C114.315 105.489 122.473 113.257 132.536 113.257Z" fill="url(#paint44_radial_472_1888)"/>
<path d="M132.536 113.257C142.6 113.257 150.757 105.489 150.757 95.9065C150.757 86.3241 142.6 78.5562 132.536 78.5562C122.473 78.5562 114.315 86.3241 114.315 95.9065C114.315 105.489 122.473 113.257 132.536 113.257Z" fill="url(#paint45_radial_472_1888)"/>
<path d="M132.536 113.257C142.6 113.257 150.757 105.489 150.757 95.9065C150.757 86.3241 142.6 78.5562 132.536 78.5562C122.473 78.5562 114.315 86.3241 114.315 95.9065C114.315 105.489 122.473 113.257 132.536 113.257Z" fill="url(#paint46_radial_472_1888)"/>
<path d="M132.536 113.257C142.6 113.257 150.757 105.489 150.757 95.9065C150.757 86.3241 142.6 78.5562 132.536 78.5562C122.473 78.5562 114.315 86.3241 114.315 95.9065C114.315 105.489 122.473 113.257 132.536 113.257Z" fill="url(#paint47_radial_472_1888)"/>
<path d="M132.536 113.257C142.6 113.257 150.757 105.489 150.757 95.9065C150.757 86.3241 142.6 78.5562 132.536 78.5562C122.473 78.5562 114.315 86.3241 114.315 95.9065C114.315 105.489 122.473 113.257 132.536 113.257Z" fill="url(#paint48_radial_472_1888)"/>
<defs>
<linearGradient id="paint0_linear_472_1888" x1="128.155" y1="151.859" x2="173.831" y2="151.859" gradientUnits="userSpaceOnUse">
<stop stop-color="#56322E"/>
<stop offset="0.476042" stop-color="#7E4D54"/>
<stop offset="1" stop-color="#906C65"/>
</linearGradient>
<linearGradient id="paint1_linear_472_1888" x1="162.94" y1="88.2866" x2="161.383" y2="134.805" gradientUnits="userSpaceOnUse">
<stop stop-color="#734951"/>
<stop offset="1" stop-color="#734951" stop-opacity="0"/>
</linearGradient>
<radialGradient id="paint2_radial_472_1888" cx="0" cy="0" r="1" gradientUnits="userSpaceOnUse" gradientTransform="translate(153.899 80.5732) rotate(60.5023) scale(38.2845 11.4079)">
<stop stop-color="#4B2231"/>
<stop offset="1" stop-color="#4B2231" stop-opacity="0"/>
</radialGradient>
<radialGradient id="paint3_radial_472_1888" cx="0" cy="0" r="1" gradientUnits="userSpaceOnUse" gradientTransform="translate(150.986 79.3447) rotate(136.293) scale(42.0023 8.43385)">
<stop stop-color="#4B2231"/>
<stop offset="1" stop-color="#4B2231" stop-opacity="0"/>
</radialGradient>
<radialGradient id="paint4_radial_472_1888" cx="0" cy="0" r="1" gradientUnits="userSpaceOnUse" gradientTransform="translate(153.899 104.989) rotate(119.566) scale(30.8955 22.7061)">
<stop stop-color="#422026"/>
<stop offset="1" stop-color="#422026" stop-opacity="0"/>
</radialGradient>
<radialGradient id="paint5_radial_472_1888" cx="0" cy="0" r="1" gradientUnits="userSpaceOnUse" gradientTransform="translate(155.335 189.174) rotate(-90) scale(14.7129 50.3594)">
<stop stop-color="#733629"/>
<stop offset="1" stop-color="#733629" stop-opacity="0"/>
</radialGradient>
<radialGradient id="paint6_radial_472_1888" cx="0" cy="0" r="1" gradientUnits="userSpaceOnUse" gradientTransform="translate(156.194 125.146) rotate(90) scale(29.1533 16.0234)">
<stop stop-color="#63353B"/>
<stop offset="1" stop-color="#63353B" stop-opacity="0"/>
</radialGradient>
<radialGradient id="paint7_radial_472_1888" cx="0" cy="0" r="1" gradientUnits="userSpaceOnUse" gradientTransform="translate(113.91 43.5004) rotate(91.4685) scale(40.8243 98.9062)">
<stop stop-color="#9ED141"/>
<stop offset="1" stop-color="#799D4B"/>
</radialGradient>
<radialGradient id="paint8_radial_472_1888" cx="0" cy="0" r="1" gradientUnits="userSpaceOnUse" gradientTransform="translate(103.485 53.4621) rotate(90) scale(20.6473 56.5333)">
<stop stop-color="#9AC644"/>
<stop offset="1" stop-color="#9AC644" stop-opacity="0"/>
</radialGradient>
<linearGradient id="paint9_linear_472_1888" x1="144.346" y1="76.599" x2="133.321" y2="57.5572" gradientUnits="userSpaceOnUse">
<stop stop-color="#5D9501"/>
<stop offset="1" stop-color="#5D9501" stop-opacity="0"/>
</linearGradient>
<linearGradient id="paint10_linear_472_1888" x1="85.0647" y1="77.563" x2="85.0647" y2="69.208" gradientUnits="userSpaceOnUse">
<stop stop-color="#9C99A6"/>
<stop offset="1" stop-color="#9C99A6" stop-opacity="0"/>
</linearGradient>
<radialGradient id="paint11_radial_472_1888" cx="0" cy="0" r="1" gradientUnits="userSpaceOnUse" gradientTransform="translate(89.6343 74.1094) rotate(161.829) scale(33.526 12.9541)">
<stop stop-color="#66981B"/>
<stop offset="1" stop-color="#66981B" stop-opacity="0"/>
</radialGradient>
<radialGradient id="paint12_radial_472_1888" cx="0" cy="0" r="1" gradientUnits="userSpaceOnUse" gradientTransform="translate(114.062 65.5321) rotate(176.549) scale(73.2062 57.783)">
<stop offset="0.746552" stop-color="#82AB5A" stop-opacity="0"/>
<stop offset="0.984356" stop-color="#82AB5A"/>
</radialGradient>
<radialGradient id="paint13_radial_472_1888" cx="0" cy="0" r="1" gradientUnits="userSpaceOnUse" gradientTransform="translate(119.031 47.9531) rotate(32.4079) scale(16.2681 11.5396)">
<stop stop-color="#B0DD64"/>
<stop offset="1" stop-color="#B0DD64" stop-opacity="0"/>
</radialGradient>
<radialGradient id="paint14_radial_472_1888" cx="0" cy="0" r="1" gradientUnits="userSpaceOnUse" gradientTransform="translate(222.29 226.229) rotate(-180) scale(115.025 93.1554)">
<stop stop-color="#FFC351"/>
<stop offset="1" stop-color="#F07B4C"/>
</radialGradient>
<radialGradient id="paint15_radial_472_1888" cx="0" cy="0" r="1" gradientUnits="userSpaceOnUse" gradientTransform="translate(151.078 340.031) rotate(-90) scale(156.938 146.565)">
<stop offset="0.955729" stop-color="#E49B79" stop-opacity="0"/>
<stop offset="0.980903" stop-color="#E49B79"/>
</radialGradient>
<radialGradient id="paint16_radial_472_1888" cx="0" cy="0" r="1" gradientUnits="userSpaceOnUse" gradientTransform="translate(234.008 57.3995) rotate(-180) scale(118.621 118.881)">
<stop stop-color="#A3D350"/>
<stop offset="1" stop-color="#679E15"/>
</radialGradient>
<radialGradient id="paint17_radial_472_1888" cx="0" cy="0" r="1" gradientUnits="userSpaceOnUse" gradientTransform="translate(228.256 51.4866) rotate(-180) scale(67.6819 36.4262)">
<stop stop-color="#A3CF56"/>
<stop offset="1" stop-color="#A3CF56" stop-opacity="0"/>
</radialGradient>
<linearGradient id="paint18_linear_472_1888" x1="218.118" y1="80.6522" x2="218.118" y2="69.4829" gradientUnits="userSpaceOnUse">
<stop stop-color="#95A096"/>
<stop offset="1" stop-color="#95A096" stop-opacity="0"/>
</linearGradient>
<radialGradient id="paint19_radial_472_1888" cx="0" cy="0" r="1" gradientUnits="userSpaceOnUse" gradientTransform="translate(219.75 43.5938) rotate(32.4079) scale(16.2681 6.67076)">
<stop stop-color="#B0DD64"/>
<stop offset="1" stop-color="#B0DD64" stop-opacity="0"/>
</radialGradient>
<radialGradient id="paint20_radial_472_1888" cx="0" cy="0" r="1" gradientUnits="userSpaceOnUse" gradientTransform="translate(199.923 82.0948) rotate(137.519) scale(32.4974 56.2825)">
<stop stop-color="#74A550"/>
<stop offset="1" stop-color="#517D2A"/>
</radialGradient>
<radialGradient id="paint21_radial_472_1888" cx="0" cy="0" r="1" gradientUnits="userSpaceOnUse" gradientTransform="translate(179.574 117.167) rotate(-46.3628) scale(16.0545 66.3209)">
<stop stop-color="#576043"/>
<stop offset="1" stop-color="#576043" stop-opacity="0"/>
</radialGradient>
<radialGradient id="paint22_radial_472_1888" cx="0" cy="0" r="1" gradientUnits="userSpaceOnUse" gradientTransform="translate(127.57 67.8938) rotate(29.1814) scale(108.559 98.0219)">
<stop offset="0.756577" stop-color="#6C9543" stop-opacity="0"/>
<stop offset="1" stop-color="#6C9543"/>
</radialGradient>
<radialGradient id="paint23_radial_472_1888" cx="0" cy="0" r="1" gradientUnits="userSpaceOnUse" gradientTransform="translate(171.999 102.213) rotate(-103.868) scale(18.395 9.72977)">
<stop stop-color="#3E6A0C"/>
<stop offset="1" stop-color="#3E6A0C" stop-opacity="0"/>
</radialGradient>
<linearGradient id="paint24_linear_472_1888" x1="173.452" y1="108.087" x2="179.438" y2="101.796" gradientUnits="userSpaceOnUse">
<stop stop-color="#394B28"/>
<stop offset="1" stop-color="#394B28" stop-opacity="0"/>
</linearGradient>
<radialGradient id="paint25_radial_472_1888" cx="0" cy="0" r="1" gradientUnits="userSpaceOnUse" gradientTransform="translate(201.437 82.8282) rotate(43.5979) scale(18.965 5.03154)">
<stop stop-color="#87BE60"/>
<stop offset="1" stop-color="#87BE60" stop-opacity="0"/>
</radialGradient>
<radialGradient id="paint26_radial_472_1888" cx="0" cy="0" r="1" gradientUnits="userSpaceOnUse" gradientTransform="translate(125.015 89.8445) rotate(119.787) scale(62.0376 57.8028)">
<stop stop-color="#65943F"/>
<stop offset="1" stop-color="#4C712C"/>
</radialGradient>
<radialGradient id="paint27_radial_472_1888" cx="0" cy="0" r="1" gradientUnits="userSpaceOnUse" gradientTransform="translate(112.254 97.7115) rotate(136.05) scale(35.3089 10.6326)">
<stop stop-color="#69785C"/>
<stop offset="1" stop-color="#69785C" stop-opacity="0"/>
</radialGradient>
<radialGradient id="paint28_radial_472_1888" cx="0" cy="0" r="1" gradientUnits="userSpaceOnUse" gradientTransform="translate(120.628 96.4265) rotate(135.191) scale(19.3884 18.3603)">
<stop stop-color="#4E5E45"/>
<stop offset="1" stop-color="#4E5E45" stop-opacity="0"/>
</radialGradient>
<linearGradient id="paint29_linear_472_1888" x1="108.965" y1="109.464" x2="106.463" y2="107.064" gradientUnits="userSpaceOnUse">
<stop stop-color="#617247"/>
<stop offset="1" stop-color="#617247" stop-opacity="0"/>
</linearGradient>
<radialGradient id="paint30_radial_472_1888" cx="0" cy="0" r="1" gradientUnits="userSpaceOnUse" gradientTransform="translate(123.609 74.1092) rotate(-162.39) scale(14.4096 9.34163)">
<stop stop-color="#87BE60"/>
<stop offset="1" stop-color="#87BE60" stop-opacity="0"/>
</radialGradient>
<radialGradient id="paint31_radial_472_1888" cx="0" cy="0" r="1" gradientUnits="userSpaceOnUse" gradientTransform="translate(173.775 113.431) rotate(132.013) scale(26.292 33.3868)">
<stop stop-color="#B97056"/>
<stop offset="1" stop-color="#82582F"/>
</radialGradient>
<radialGradient id="paint32_radial_472_1888" cx="0" cy="0" r="1" gradientUnits="userSpaceOnUse" gradientTransform="translate(165.477 130.869) rotate(-83.0878) scale(19.0204 21.9007)">
<stop stop-color="#B5547D"/>
<stop offset="1" stop-color="#B5547D" stop-opacity="0"/>
</radialGradient>
<radialGradient id="paint33_radial_472_1888" cx="0" cy="0" r="1" gradientUnits="userSpaceOnUse" gradientTransform="translate(178.424 129.901) rotate(-126.994) scale(3.923 12.8488)">
<stop stop-color="#AD619B"/>
<stop offset="1" stop-color="#AD619B" stop-opacity="0"/>
</radialGradient>
<radialGradient id="paint34_radial_472_1888" cx="0" cy="0" r="1" gradientUnits="userSpaceOnUse" gradientTransform="translate(151.027 124.52) rotate(-31.639) scale(5.71343 9.22734)">
<stop stop-color="#AD619B"/>
<stop offset="1" stop-color="#AD619B" stop-opacity="0"/>
</radialGradient>
<radialGradient id="paint35_radial_472_1888" cx="0" cy="0" r="1" gradientUnits="userSpaceOnUse" gradientTransform="translate(152.992 125.592) rotate(-32.6598) scale(40.7409 35.49)">
<stop offset="0.817127" stop-color="#AC794F" stop-opacity="0"/>
<stop offset="1" stop-color="#AC794F"/>
</radialGradient>
<radialGradient id="paint36_radial_472_1888" cx="0" cy="0" r="1" gradientUnits="userSpaceOnUse" gradientTransform="translate(150.666 105.389) rotate(90) scale(13.8794 4.93655)">
<stop stop-color="#893E2F"/>
<stop offset="1" stop-color="#893E2F" stop-opacity="0"/>
</radialGradient>
<radialGradient id="paint37_radial_472_1888" cx="0" cy="0" r="1" gradientUnits="userSpaceOnUse" gradientTransform="translate(173.969 113.344) rotate(117.703) scale(9.84763 11.0199)">
<stop stop-color="#CA8D74"/>
<stop offset="1" stop-color="#CA8D74" stop-opacity="0"/>
</radialGradient>
<linearGradient id="paint38_linear_472_1888" x1="32.8706" y1="252.931" x2="274.939" y2="252.931" gradientUnits="userSpaceOnUse">
<stop stop-color="#5884FF"/>
<stop offset="1" stop-color="#6DD5FF"/>
</linearGradient>
<linearGradient id="paint39_linear_472_1888" x1="137.343" y1="252.844" x2="137.343" y2="178.735" gradientUnits="userSpaceOnUse">
<stop stop-color="#5884FF"/>
<stop offset="0.102818" stop-color="#5884FF" stop-opacity="0"/>
</linearGradient>
<radialGradient id="paint40_radial_472_1888" cx="0" cy="0" r="1" gradientUnits="userSpaceOnUse" gradientTransform="translate(68.6716 222.328) rotate(106.702) scale(31.8597 66.6874)">
<stop offset="0.145474" stop-color="#82E6FF"/>
<stop offset="0.496875" stop-color="#82E6FF" stop-opacity="0"/>
</radialGradient>
<radialGradient id="paint41_radial_472_1888" cx="0" cy="0" r="1" gradientUnits="userSpaceOnUse" gradientTransform="translate(128.187 226.688) rotate(114.231) scale(33.464 93.3732)">
<stop stop-color="#82E6FF"/>
<stop offset="0.28556" stop-color="#82E6FF" stop-opacity="0"/>
</radialGradient>
<radialGradient id="paint42_radial_472_1888" cx="0" cy="0" r="1" gradientUnits="userSpaceOnUse" gradientTransform="translate(183.125 222.328) rotate(111.495) scale(37.482 96.1096)">
<stop offset="0.0333903" stop-color="#82E6FF"/>
<stop offset="0.36387" stop-color="#82E6FF" stop-opacity="0"/>
</radialGradient>
<radialGradient id="paint43_radial_472_1888" cx="0" cy="0" r="1" gradientUnits="userSpaceOnUse" gradientTransform="translate(251.797 226.688) rotate(107.487) scale(45.7061 198.572)">
<stop offset="0.0223626" stop-color="#82E6FF"/>
<stop offset="0.103785" stop-color="#82E6FF" stop-opacity="0.5"/>
<stop offset="0.215597" stop-color="#82E6FF" stop-opacity="0"/>
</radialGradient>
<radialGradient id="paint44_radial_472_1888" cx="0" cy="0" r="1" gradientUnits="userSpaceOnUse" gradientTransform="translate(137.308 95.9065) rotate(132.013) scale(26.1605 33.2199)">
<stop stop-color="#AA674F"/>
<stop offset="1" stop-color="#82582F"/>
</radialGradient>
<radialGradient id="paint45_radial_472_1888" cx="0" cy="0" r="1" gradientUnits="userSpaceOnUse" gradientTransform="translate(129.052 113.257) rotate(-83.0878) scale(18.9253 21.7912)">
<stop stop-color="#AC4D77"/>
<stop offset="1" stop-color="#AC4D77" stop-opacity="0"/>
</radialGradient>
<radialGradient id="paint46_radial_472_1888" cx="0" cy="0" r="1" gradientUnits="userSpaceOnUse" gradientTransform="translate(126.774 113.853) rotate(-71.4247) scale(3.57497 8.53417)">
<stop stop-color="#AD619B"/>
<stop offset="1" stop-color="#AD619B" stop-opacity="0"/>
</radialGradient>
<radialGradient id="paint47_radial_472_1888" cx="0" cy="0" r="1" gradientUnits="userSpaceOnUse" gradientTransform="translate(116.629 108.007) rotate(-32.6598) scale(40.5372 35.3125)">
<stop offset="0.773245" stop-color="#AC794F" stop-opacity="0"/>
<stop offset="1" stop-color="#AC794F"/>
</radialGradient>
<radialGradient id="paint48_radial_472_1888" cx="0" cy="0" r="1" gradientUnits="userSpaceOnUse" gradientTransform="translate(137.344 91.547) rotate(117.703) scale(9.84763 11.0199)">
<stop stop-color="#CA8D74"/>
<stop offset="1" stop-color="#CA8D74" stop-opacity="0"/>
</radialGradient>
</defs>
</svg>
